<svg width="74" height="49" viewBox="0 0 74 49" fill="none" xmlns="http://www.w3.org/2000/svg">
<path d="M66.1304 38.308V26.3953C66.1305 25.1976 65.9231 24.009 65.5174 22.8832L59.1321 5.95318C58.573 4.48575 57.5826 3.22522 56.2932 2.34013C55.0038 1.45504 53.4769 0.987583 51.9167 1.00025H21.5992C20.0476 0.998054 18.5319 1.4704 17.2527 2.3548C15.9734 3.2392 14.9908 4.49399 14.4348 5.95318L8.04949 22.8832C7.64385 24.009 7.43643 25.1976 7.43652 26.3953V38.308C7.43652 38.9904 7.70562 39.6449 8.18461 40.1274C8.6636 40.6099 9.31326 40.881 9.99065 40.881H63.6274C64.2959 40.8675 64.9325 40.5905 65.4005 40.1094C65.8685 39.6284 66.1306 38.9816 66.1304 38.308Z" stroke="url(#paint0_linear_609_1245)" stroke-width="2" stroke-linecap="round" stroke-linejoin="round"/>
<path d="M7.38574 38.3086V44.741C7.38574 45.4234 7.65484 46.0778 8.13383 46.5603C8.61282 47.0428 9.26248 47.3139 9.93987 47.3139H13.7711C14.4485 47.3139 15.0981 47.0428 15.5771 46.5603C16.0561 46.0778 16.3252 45.4234 16.3252 44.741V40.8815" stroke="url(#paint1_linear_609_1245)" stroke-width="2" stroke-miterlimit="10"/>
<path d="M66.1299 38.3086V44.741C66.1299 45.4234 65.8608 46.0778 65.3818 46.5603C64.9028 47.0428 64.2532 47.3139 63.5758 47.3139H59.7446C59.0672 47.3139 58.4175 47.0428 57.9385 46.5603C57.4595 46.0778 57.1904 45.4234 57.1904 44.741V40.8815" stroke="url(#paint2_linear_609_1245)" stroke-width="2" stroke-miterlimit="10"/>
<path d="M9.93945 19.0117L11.804 19.6421C13.1054 20.0777 14.4681 20.2992 15.8395 20.2982H57.6762C59.0476 20.2992 60.4102 20.0777 61.7117 19.6421L63.5762 19.0117" stroke="url(#paint3_linear_609_1245)" stroke-width="2" stroke-linecap="round" stroke-linejoin="round"/>
<path d="M20.1563 31.8764H15.048C14.0319 31.8764 13.0574 31.4698 12.3389 30.746C11.6205 30.0222 11.2168 29.0405 11.2168 28.0169C11.2168 27.6757 11.3514 27.3485 11.5909 27.1073C11.8304 26.866 12.1552 26.7305 12.4939 26.7305H17.6021C18.6182 26.7305 19.5927 27.1371 20.3112 27.8609C21.0297 28.5846 21.4333 29.5663 21.4333 30.5899C21.4333 30.9311 21.2988 31.2583 21.0593 31.4996C20.8198 31.7408 20.495 31.8764 20.1563 31.8764Z" stroke="url(#paint4_linear_609_1245)" stroke-width="2" stroke-miterlimit="10"/>
<path d="M46.9741 35.7354H26.541" stroke="url(#paint5_linear_609_1245)" stroke-width="2" stroke-miterlimit="10" stroke-linecap="round"/>
<path d="M58.4674 31.8764H53.3591C53.0204 31.8764 52.6956 31.7408 52.4561 31.4996C52.2166 31.2583 52.082 30.9311 52.082 30.5899C52.082 29.5663 52.4857 28.5846 53.2042 27.8609C53.9227 27.1371 54.8971 26.7305 55.9132 26.7305H61.0215C61.3602 26.7305 61.685 26.866 61.9245 27.1073C62.164 27.3485 62.2986 27.6757 62.2986 28.0169C62.2986 29.0405 61.8949 30.0222 61.1764 30.746C60.4579 31.4698 59.4835 31.8764 58.4674 31.8764Z" stroke="url(#paint6_linear_609_1245)" stroke-width="2" stroke-miterlimit="10"/>
<path d="M8.66239 17.724H4.19266C3.34592 17.724 2.53386 17.3852 1.93512 16.782C1.33638 16.1789 1 15.3608 1 14.5078C1 13.996 1.20181 13.5052 1.56105 13.1433C1.9203 12.7814 2.40755 12.5781 2.9156 12.5781H6.74679C7.25484 12.5781 7.74209 12.7814 8.10134 13.1433C8.46058 13.5052 8.66239 13.996 8.66239 14.5078V17.724Z" stroke="url(#paint7_linear_609_1245)" stroke-width="2" stroke-miterlimit="10"/>
<path d="M64.8525 17.724H69.3223C70.169 17.724 70.9811 17.3852 71.5798 16.782C72.1786 16.1789 72.5149 15.3608 72.5149 14.5078C72.5149 13.996 72.3131 13.5052 71.9539 13.1433C71.5946 12.7814 71.1074 12.5781 70.5993 12.5781H66.7681C66.2601 12.5781 65.7728 12.7814 65.4136 13.1433C65.0543 13.5052 64.8525 13.996 64.8525 14.5078V17.724Z" stroke="url(#paint8_linear_609_1245)" stroke-width="2" stroke-miterlimit="10"/>
<defs>
<linearGradient id="paint0_linear_609_1245" x1="82.2014" y1="58.5425" x2="10.2167" y2="-2.28983" gradientUnits="userSpaceOnUse">
<stop stop-color="#4817AF"/>
<stop offset="1" stop-color="#00468A"/>
</linearGradient>
<linearGradient id="paint1_linear_609_1245" x1="18.7729" y1="51.302" x2="4.58815" y2="43.2166" gradientUnits="userSpaceOnUse">
<stop stop-color="#4817AF"/>
<stop offset="1" stop-color="#00468A"/>
</linearGradient>
<linearGradient id="paint2_linear_609_1245" x1="68.5776" y1="51.302" x2="54.3928" y2="43.2166" gradientUnits="userSpaceOnUse">
<stop stop-color="#4817AF"/>
<stop offset="1" stop-color="#00468A"/>
</linearGradient>
<linearGradient id="paint3_linear_609_1245" x1="78.2624" y1="20.8679" x2="78.066" y2="16.166" gradientUnits="userSpaceOnUse">
<stop stop-color="#4817AF"/>
<stop offset="1" stop-color="#00468A"/>
</linearGradient>
<linearGradient id="paint4_linear_609_1245" x1="24.2307" y1="34.1553" x2="14.8908" y2="23.5077" gradientUnits="userSpaceOnUse">
<stop stop-color="#4817AF"/>
<stop offset="1" stop-color="#00468A"/>
</linearGradient>
<linearGradient id="paint5_linear_609_1245" x1="nan" y1="nan" x2="nan" y2="nan" gradientUnits="userSpaceOnUse">
<stop stop-color="#4817AF"/>
<stop offset="1" stop-color="#00468A"/>
</linearGradient>
<linearGradient id="paint6_linear_609_1245" x1="65.0959" y1="34.1553" x2="55.756" y2="23.5077" gradientUnits="userSpaceOnUse">
<stop stop-color="#4817AF"/>
<stop offset="1" stop-color="#00468A"/>
</linearGradient>
<linearGradient id="paint7_linear_609_1245" x1="10.7604" y1="20.0029" x2="1.45463" y2="12.0464" gradientUnits="userSpaceOnUse">
<stop stop-color="#4817AF"/>
<stop offset="1" stop-color="#00468A"/>
</linearGradient>
<linearGradient id="paint8_linear_609_1245" x1="74.613" y1="20.0029" x2="65.3072" y2="12.0464" gradientUnits="userSpaceOnUse">
<stop stop-color="#4817AF"/>
<stop offset="1" stop-color="#00468A"/>
</linearGradient>
</defs>
</svg>
