<svg width="57" height="57" viewBox="0 0 57 57" fill="none" xmlns="http://www.w3.org/2000/svg">
<path d="M28.4968 0C12.7832 0 0 12.7848 0 28.499C0 44.2133 12.78 57 28.4968 57C44.2136 57 57 44.2146 57 28.499C57 12.7835 44.2104 0 28.4968 0ZM28.4968 55.0878C13.8386 55.0878 1.91194 43.1603 1.91194 28.499C1.91194 13.8378 13.8342 1.91217 28.4968 1.91217C43.1595 1.91217 55.0881 13.839 55.0881 28.499C55.0881 43.159 43.155 55.0878 28.4968 55.0878Z" fill="url(#paint0_linear_609_1236)"/>
<path d="M28.5 8C28.9945 8 29.4778 7.85338 29.8889 7.57867C30.3 7.30397 30.6205 6.91352 30.8097 6.45671C30.9989 5.99989 31.0484 5.49723 30.952 5.01227C30.8555 4.52732 30.6174 4.08186 30.2678 3.73223C29.9181 3.3826 29.4727 3.1445 28.9877 3.04804C28.5028 2.95157 28.0001 3.00108 27.5433 3.1903C27.0865 3.37952 26.696 3.69995 26.4213 4.11108C26.1466 4.5222 26 5.00555 26 5.5C26.0007 6.16283 26.2643 6.79832 26.733 7.26701C27.2017 7.73571 27.8372 7.99932 28.5 8ZM28.5 4.93264C28.6124 4.93264 28.7222 4.96597 28.8156 5.02841C28.9091 5.09085 28.9819 5.1796 29.0248 5.28342C29.0678 5.38725 29.079 5.50149 29.057 5.61169C29.0351 5.72189 28.9809 5.8231 28.9014 5.90251C28.8219 5.98193 28.7206 6.03597 28.6104 6.05781C28.5002 6.07966 28.386 6.06832 28.2822 6.02523C28.1784 5.98214 28.0897 5.90923 28.0274 5.81574C27.9651 5.72225 27.9319 5.61237 27.932 5.5C27.9323 5.34952 27.9923 5.20531 28.0988 5.09896C28.2052 4.99262 28.3495 4.93281 28.5 4.93264Z" fill="url(#paint1_linear_609_1236)"/>
<path d="M28.5 49C28.0055 49 27.5222 49.1466 27.1111 49.4213C26.7 49.696 26.3795 50.0865 26.1903 50.5433C26.0011 51.0001 25.9516 51.5028 26.048 51.9877C26.1445 52.4727 26.3826 52.9181 26.7322 53.2678C27.0819 53.6174 27.5273 53.8555 28.0123 53.952C28.4972 54.0484 28.9999 53.9989 29.4567 53.8097C29.9135 53.6205 30.304 53.3 30.5787 52.8889C30.8534 52.4778 31 51.9944 31 51.5C30.9993 50.8372 30.7357 50.2017 30.267 49.733C29.7983 49.2643 29.1628 49.0007 28.5 49ZM28.5 52.068C28.3877 52.068 28.2778 52.0347 28.1844 51.9723C28.091 51.9099 28.0182 51.8212 27.9752 51.7174C27.9322 51.6136 27.921 51.4994 27.9429 51.3892C27.9648 51.279 28.0189 51.1778 28.0984 51.0984C28.1778 51.0189 28.279 50.9648 28.3892 50.9429C28.4994 50.921 28.6136 50.9322 28.7174 50.9752C28.8212 51.0182 28.9099 51.091 28.9723 51.1844C29.0347 51.2778 29.068 51.3877 29.068 51.5C29.068 51.6506 29.0082 51.7951 28.9016 51.9016C28.7951 52.0082 28.6506 52.068 28.5 52.068Z" fill="url(#paint2_linear_609_1236)"/>
<path d="M44.4435 10.2266C44.2704 10.0804 44.0499 10 43.8217 10H13.1777C12.9496 10 12.729 10.0804 12.5559 10.2266C9.87288 12.484 7.71876 15.2863 6.24178 18.4408C4.7648 21.5952 4 25.027 4 28.5C4 31.973 4.7648 35.4047 6.24178 38.5592C7.71876 41.7137 9.87288 44.516 12.5559 46.7734C12.729 46.9196 12.9496 47 13.1777 47H43.8192C44.0473 47 44.2679 46.9196 44.441 46.7734C47.1249 44.5165 49.2798 41.7144 50.7573 38.5599C52.2349 35.4053 53 31.9733 53 28.5C53 25.0267 52.2349 21.5947 50.7573 18.4401C49.2798 15.2856 47.1249 12.4835 44.441 10.2266H44.4435ZM43.4628 45.1219H13.5366C11.14 43.0419 9.22051 40.4841 7.90578 37.6184C6.59104 34.7527 5.9111 31.6446 5.9111 28.5006C5.9111 25.3566 6.59104 22.2486 7.90578 19.3829C9.22051 16.5172 11.14 13.9594 13.5366 11.8794H43.4634C45.8607 13.9591 47.7806 16.5167 49.0957 19.3825C50.4108 22.2482 51.0909 25.3564 51.0909 28.5006C51.0909 31.6448 50.4108 34.753 49.0957 37.6188C47.7806 40.4845 45.8607 43.0422 43.4634 45.1219H43.4628Z" fill="url(#paint3_linear_609_1236)"/>
<path d="M48.0425 21H8.95751C8.70356 21 8.46002 21.1013 8.28045 21.2815C8.10088 21.4618 8 21.7062 8 21.9611V35.0389C8 35.2938 8.10088 35.5382 8.28045 35.7185C8.46002 35.8987 8.70356 36 8.95751 36H48.0425C48.2964 36 48.54 35.8987 48.7195 35.7185C48.8991 35.5382 49 35.2938 49 35.0389V21.9611C49 21.7062 48.8991 21.4618 48.7195 21.2815C48.54 21.1013 48.2964 21 48.0425 21ZM43.1573 23.6521C42.9536 23.6514 42.757 23.5774 42.6031 23.4435C42.4493 23.3095 42.3485 23.1245 42.3191 22.9223H43.996C43.9889 22.9747 43.9772 23.0264 43.9609 23.0767L43.9354 23.1408C43.8693 23.2927 43.7605 23.4221 43.6223 23.5129C43.4841 23.6037 43.3225 23.6521 43.1573 23.6521ZM9.91502 22.9223H17.7711V34.0777H9.91502V22.9223ZM19.6861 22.9223H27.5422V34.0777H19.6861V22.9223ZM29.4572 22.9223H37.3132V34.0777H29.4572V22.9223ZM43.1573 32.7648C43.0689 32.7648 42.9825 32.7385 42.909 32.6893C42.8355 32.64 42.7783 32.5699 42.7444 32.488C42.7106 32.406 42.7018 32.3158 42.719 32.2288C42.7363 32.1418 42.7788 32.0619 42.8413 31.9992C42.9038 31.9364 42.9834 31.8937 43.0701 31.8764C43.1568 31.8591 43.2466 31.868 43.3283 31.9019C43.4099 31.9359 43.4797 31.9934 43.5288 32.0671C43.5779 32.1409 43.6041 32.2276 43.6041 32.3163C43.6041 32.4353 43.557 32.5494 43.4732 32.6335C43.3894 32.7176 43.2758 32.7648 43.1573 32.7648ZM47.085 34.0777H45.5632C45.4458 33.897 45.308 33.7303 45.1527 33.5812C45.3791 33.2226 45.5055 32.8097 45.5186 32.3854C45.5317 31.9611 45.4312 31.5411 45.2273 31.1692C45.0235 30.7973 44.724 30.4871 44.3599 30.271C43.9959 30.055 43.5808 29.941 43.1579 29.941C42.735 29.941 42.3199 30.055 41.9559 30.271C41.5918 30.4871 41.2923 30.7973 41.0885 31.1692C40.8846 31.5411 40.7841 31.9611 40.7972 32.3854C40.8103 32.8097 40.9367 33.2226 41.1631 33.5812C41.01 33.7308 40.874 33.8971 40.7577 34.0771H39.2257V22.9223H40.3945C40.4257 23.6068 40.7081 24.2555 41.1873 24.7436C41.6665 25.2317 42.3086 25.5246 42.99 25.566L42.4059 27.0679C42.3602 27.1855 42.338 27.311 42.3405 27.4372C42.3431 27.5634 42.3704 27.6879 42.4209 27.8035C42.4715 27.9191 42.5442 28.0236 42.6349 28.111C42.7256 28.1984 42.8326 28.267 42.9498 28.3129C43.0669 28.3588 43.192 28.3811 43.3177 28.3785C43.4434 28.3759 43.5674 28.3485 43.6826 28.2978C43.7978 28.2471 43.9019 28.1742 43.989 28.0831C44.076 27.992 44.1444 27.8846 44.1901 27.767L45.6991 23.8879L45.7496 23.7597L45.7611 23.7277C45.8492 23.4688 45.9006 23.1987 45.9136 22.9255H47.0824L47.085 34.0777Z" fill="url(#paint4_linear_609_1236)"/>
<path d="M34.0046 25C33.2242 24.9977 32.4736 25.2653 31.9127 25.7458C31.3518 26.2262 31.0248 26.8816 31.0014 27.5723C30.9779 28.2631 31.2599 28.9346 31.7873 29.444C32.3146 29.9534 33.0457 30.2604 33.8248 30.2996L33.1937 31.7315C33.1411 31.8443 33.1144 31.9653 33.1153 32.0873C33.1161 32.2094 33.1444 32.3301 33.1986 32.4423C33.2527 32.5546 33.3316 32.6562 33.4306 32.7411C33.5295 32.8261 33.6467 32.8927 33.7751 32.9371C33.9035 32.9815 34.0406 33.0028 34.1784 32.9997C34.3162 32.9966 34.4519 32.9693 34.5776 32.9192C34.7033 32.8691 34.8165 32.7974 34.9105 32.7081C35.0045 32.6188 35.0775 32.5139 35.1252 32.3993L36.7567 28.7C36.7575 28.6974 36.7587 28.695 36.7601 28.6926C36.7698 28.6724 36.7788 28.6516 36.7871 28.6314L36.8147 28.5702C36.8196 28.5604 36.8237 28.55 36.8279 28.5402C36.9401 28.2554 36.9983 27.9561 37 27.6544C36.9998 26.9508 36.6842 26.276 36.1226 25.7783C35.5609 25.2806 34.7992 25.0007 34.0046 25ZM34.8749 27.9182L34.8411 27.9948C34.7458 28.1773 34.5777 28.3223 34.369 28.4019C34.1604 28.4814 33.926 28.49 33.7107 28.4258C33.4954 28.3617 33.3145 28.2294 33.2026 28.0543C33.0907 27.8793 33.0558 27.6738 33.1045 27.4773C33.1533 27.2809 33.2822 27.1073 33.4666 26.9898C33.651 26.8724 33.8779 26.8195 34.1038 26.8411C34.3296 26.8627 34.5384 26.9575 34.6902 27.1071C34.842 27.2568 34.926 27.4508 34.9261 27.6519C34.9247 27.7425 34.9074 27.8323 34.8749 27.9182Z" fill="url(#paint5_linear_609_1236)"/>
<path d="M24.0042 25C23.2238 24.9979 22.4733 25.2656 21.9124 25.7461C21.3516 26.2266 21.0247 26.8819 21.0013 27.5726C20.978 28.2633 21.2601 28.9348 21.7875 29.4441C22.3149 29.9534 23.046 30.2604 23.8251 30.2996L23.1939 31.7315C23.1413 31.8443 23.1147 31.9653 23.1155 32.0873C23.1163 32.2094 23.1447 32.3301 23.1988 32.4423C23.2529 32.5546 23.3318 32.6562 23.4308 32.7411C23.5298 32.8261 23.6469 32.8927 23.7753 32.9371C23.9038 32.9815 24.0409 33.0028 24.1787 32.9997C24.3165 32.9966 24.4523 32.9693 24.578 32.9192C24.7037 32.8691 24.8169 32.7974 24.9109 32.7081C25.005 32.6188 25.078 32.5139 25.1256 32.3993L26.7573 28.7006C26.7581 28.6978 26.7592 28.6951 26.7608 28.6926C26.7705 28.6724 26.7794 28.6516 26.7877 28.6314L26.8154 28.5702C26.8195 28.5604 26.8244 28.55 26.8285 28.5396C26.9408 28.255 26.9988 27.9558 27 27.6544C26.9998 26.9508 26.6842 26.276 26.1225 25.7783C25.5608 25.2806 24.7989 25.0007 24.0042 25ZM24.8754 27.9182L24.8415 27.9948C24.7465 28.1778 24.5784 28.3233 24.3696 28.4034C24.1608 28.4835 23.9259 28.4924 23.7101 28.4285C23.4943 28.3646 23.3128 28.2324 23.2004 28.0573C23.0879 27.8821 23.0525 27.6763 23.101 27.4795C23.1494 27.2826 23.2783 27.1086 23.4628 26.9907C23.6473 26.8728 23.8745 26.8194 24.1008 26.8408C24.3271 26.8622 24.5364 26.9568 24.6887 27.1065C24.841 27.2562 24.9254 27.4505 24.9258 27.6519C24.9246 27.7425 24.9076 27.8323 24.8754 27.9182Z" fill="url(#paint6_linear_609_1236)"/>
<path d="M14.0028 25C13.2229 24.9977 12.4728 25.2658 11.9122 25.7471C11.3516 26.2285 11.0248 26.8851 11.0014 27.5771C10.9779 28.2691 11.2598 28.9419 11.7868 29.4523C12.3139 29.9626 13.0445 30.2701 13.8232 30.3094L13.1924 31.7439C13.1429 31.8567 13.1189 31.977 13.1218 32.098C13.1247 32.219 13.1544 32.3383 13.2092 32.4491C13.264 32.5599 13.3429 32.66 13.4413 32.7437C13.5397 32.8275 13.6558 32.8932 13.7828 32.9371C13.9098 32.9811 14.0453 33.0024 14.1816 32.9998C14.3179 32.9972 14.4523 32.9709 14.5771 32.9222C14.702 32.8735 14.8148 32.8035 14.9091 32.7162C15.0034 32.6288 15.0775 32.5258 15.127 32.4131L16.7568 28.7068L16.7609 28.6995C16.7706 28.6792 16.7796 28.6584 16.7872 28.6381L16.8148 28.5768C16.8197 28.567 16.8238 28.5566 16.828 28.5468C16.9405 28.2615 16.9986 27.9616 17 27.6593C16.9999 27.31 16.9223 26.9641 16.7716 26.6415C16.621 26.3188 16.4002 26.0256 16.1219 25.7786C15.8436 25.5317 15.5132 25.3359 15.1496 25.2023C14.786 25.0687 14.3963 24.9999 14.0028 25ZM14.8741 27.9236L14.8402 28.0003C14.7453 28.1837 14.5773 28.3295 14.3687 28.4097C14.16 28.4899 13.9253 28.4989 13.7097 28.4349C13.494 28.3709 13.3126 28.2384 13.2003 28.0629C13.0879 27.8874 13.0525 27.6813 13.1009 27.4841C13.1493 27.2869 13.2781 27.1125 13.4625 26.9944C13.6469 26.8763 13.874 26.8228 14.1001 26.8442C14.3262 26.8656 14.5354 26.9604 14.6875 27.1104C14.8397 27.2604 14.9241 27.455 14.9245 27.6569C14.9233 27.7476 14.9063 27.8376 14.8741 27.9236Z" fill="url(#paint7_linear_609_1236)"/>
<defs>
<linearGradient id="paint0_linear_609_1236" x1="72.6071" y1="82.2429" x2="-17.5112" y2="30.4964" gradientUnits="userSpaceOnUse">
<stop stop-color="#4817AF"/>
<stop offset="1" stop-color="#00468A"/>
</linearGradient>
<linearGradient id="paint1_linear_609_1236" x1="32.369" y1="10.2143" x2="24.4639" y2="5.67512" gradientUnits="userSpaceOnUse">
<stop stop-color="#4817AF"/>
<stop offset="1" stop-color="#00468A"/>
</linearGradient>
<linearGradient id="paint2_linear_609_1236" x1="32.369" y1="56.2143" x2="24.4639" y2="51.6751" gradientUnits="userSpaceOnUse">
<stop stop-color="#4817AF"/>
<stop offset="1" stop-color="#00468A"/>
</linearGradient>
<linearGradient id="paint3_linear_609_1236" x1="66.4167" y1="63.3857" x2="1.1467" y2="13.7522" gradientUnits="userSpaceOnUse">
<stop stop-color="#4817AF"/>
<stop offset="1" stop-color="#00468A"/>
</linearGradient>
<linearGradient id="paint4_linear_609_1236" x1="60.2262" y1="42.6429" x2="35.3383" y2="3.58146" gradientUnits="userSpaceOnUse">
<stop stop-color="#4817AF"/>
<stop offset="1" stop-color="#00468A"/>
</linearGradient>
<linearGradient id="paint5_linear_609_1236" x1="38.6429" y1="36.5429" x2="28.0024" y2="31.9605" gradientUnits="userSpaceOnUse">
<stop stop-color="#4817AF"/>
<stop offset="1" stop-color="#00468A"/>
</linearGradient>
<linearGradient id="paint6_linear_609_1236" x1="28.6429" y1="36.5429" x2="18.0024" y2="31.9605" gradientUnits="userSpaceOnUse">
<stop stop-color="#4817AF"/>
<stop offset="1" stop-color="#00468A"/>
</linearGradient>
<linearGradient id="paint7_linear_609_1236" x1="18.6429" y1="36.5429" x2="8.00239" y2="31.9605" gradientUnits="userSpaceOnUse">
<stop stop-color="#4817AF"/>
<stop offset="1" stop-color="#00468A"/>
</linearGradient>
</defs>
</svg>
