<svg width="53" height="58" viewBox="0 0 53 58" fill="none" xmlns="http://www.w3.org/2000/svg">
<path d="M16.3105 7.76L25.3422 1.3687C25.6811 1.12882 26.0861 1 26.5013 1C26.9166 1 27.3216 1.12882 27.6605 1.3687L52.0005 18.5935" stroke="url(#paint0_linear_609_1268)" stroke-width="2" stroke-linecap="round" stroke-linejoin="round"/>
<path d="M1 18.5933L8.72613 13.126" stroke="url(#paint1_linear_609_1268)" stroke-width="2" stroke-linecap="round" stroke-linejoin="round"/>
<path d="M8.72656 13.1256V4.79788C8.72656 4.52256 8.83594 4.25851 9.03062 4.06382C9.2253 3.86914 9.48935 3.75977 9.76468 3.75977H15.2711C15.4075 3.75961 15.5427 3.78634 15.6688 3.83844C15.7948 3.89054 15.9094 3.96698 16.006 4.06339C16.1025 4.1598 16.1791 4.2743 16.2313 4.40033C16.2836 4.52636 16.3104 4.66145 16.3104 4.79788V7.75937" stroke="url(#paint2_linear_609_1268)" stroke-width="2" stroke-linecap="round" stroke-linejoin="round"/>
<path d="M46.9941 29.9591V15.375" stroke="url(#paint3_linear_609_1268)" stroke-width="2" stroke-linecap="round" stroke-linejoin="round"/>
<path d="M6.00488 41.8936V54.8461C6.00488 55.2785 6.17665 55.6932 6.4824 55.9989C6.78814 56.3047 7.20282 56.4764 7.63521 56.4764H45.361C45.7934 56.4764 46.2081 56.3047 46.5139 55.9989C46.8196 55.6932 46.9914 55.2785 46.9914 54.8461V41.8936" stroke="url(#paint4_linear_609_1268)" stroke-width="2" stroke-linecap="round" stroke-linejoin="round"/>
<path d="M6.00488 15.375V29.9591" stroke="url(#paint5_linear_609_1268)" stroke-width="2" stroke-linecap="round" stroke-linejoin="round"/>
<path d="M11.9119 24.9253C13.3944 24.9253 14.5962 23.7235 14.5962 22.241C14.5962 20.7585 13.3944 19.5566 11.9119 19.5566C10.4294 19.5566 9.22754 20.7585 9.22754 22.241C9.22754 23.7235 10.4294 24.9253 11.9119 24.9253Z" stroke="url(#paint6_linear_609_1268)" stroke-width="2" stroke-linecap="round" stroke-linejoin="round"/>
<path d="M41.0877 24.9253C42.5702 24.9253 43.772 23.7235 43.772 22.241C43.772 20.7585 42.5702 19.5566 41.0877 19.5566C39.6051 19.5566 38.4033 20.7585 38.4033 22.241C38.4033 23.7235 39.6051 24.9253 41.0877 24.9253Z" stroke="url(#paint7_linear_609_1268)" stroke-width="2" stroke-linecap="round" stroke-linejoin="round"/>
<path d="M11.9119 53.3814C13.3944 53.3814 14.5962 52.1796 14.5962 50.697C14.5962 49.2145 13.3944 48.0127 11.9119 48.0127C10.4294 48.0127 9.22754 49.2145 9.22754 50.697C9.22754 52.1796 10.4294 53.3814 11.9119 53.3814Z" stroke="url(#paint8_linear_609_1268)" stroke-width="2" stroke-linecap="round" stroke-linejoin="round"/>
<path d="M41.0877 53.3814C42.5702 53.3814 43.772 52.1796 43.772 50.697C43.772 49.2145 42.5702 48.0127 41.0877 48.0127C39.6051 48.0127 38.4033 49.2145 38.4033 50.697C38.4033 52.1796 39.6051 53.3814 41.0877 53.3814Z" stroke="url(#paint9_linear_609_1268)" stroke-width="2" stroke-linecap="round" stroke-linejoin="round"/>
<path d="M49.3152 38.6099C50.7977 38.6099 51.9995 37.4081 51.9995 35.9255C51.9995 34.443 50.7977 33.2412 49.3152 33.2412C47.8327 33.2412 46.6309 34.443 46.6309 35.9255C46.6309 37.4081 47.8327 38.6099 49.3152 38.6099Z" stroke="url(#paint10_linear_609_1268)" stroke-width="2" stroke-linecap="round" stroke-linejoin="round"/>
<path d="M3.68434 38.6099C5.16686 38.6099 6.36868 37.4081 6.36868 35.9255C6.36868 34.443 5.16686 33.2412 3.68434 33.2412C2.20182 33.2412 1 34.443 1 35.9255C1 37.4081 2.20182 38.6099 3.68434 38.6099Z" stroke="url(#paint11_linear_609_1268)" stroke-width="2" stroke-linecap="round" stroke-linejoin="round"/>
<path d="M6.36914 35.9258H15.5279" stroke="url(#paint12_linear_609_1268)" stroke-width="2" stroke-linecap="round" stroke-linejoin="round"/>
<path d="M37.4717 35.9258H46.6305" stroke="url(#paint13_linear_609_1268)" stroke-width="2" stroke-linecap="round" stroke-linejoin="round"/>
<path d="M11.9111 24.9258V31.2429H15.5272" stroke="url(#paint14_linear_609_1268)" stroke-width="2" stroke-linecap="round" stroke-linejoin="round"/>
<path d="M41.0877 24.9258V31.2429H37.4717" stroke="url(#paint15_linear_609_1268)" stroke-width="2" stroke-linecap="round" stroke-linejoin="round"/>
<path d="M11.9111 48.013V41.6963H15.5272" stroke="url(#paint16_linear_609_1268)" stroke-width="2" stroke-linecap="round" stroke-linejoin="round"/>
<path d="M41.0877 48.013V41.6963H37.4717" stroke="url(#paint17_linear_609_1268)" stroke-width="2" stroke-linecap="round" stroke-linejoin="round"/>
<path d="M25.042 37.9681C25.4286 37.5814 25.953 37.3643 26.4997 37.3643C27.0465 37.3643 27.5708 37.5814 27.9574 37.9681" stroke="url(#paint18_linear_609_1268)" stroke-width="2" stroke-linecap="round" stroke-linejoin="round"/>
<path d="M22.9902 35.9155C23.451 35.4547 23.9981 35.0891 24.6002 34.8397C25.2023 34.5903 25.8476 34.4619 26.4993 34.4619C27.151 34.4619 27.7963 34.5903 28.3984 34.8397C29.0005 35.0891 29.5476 35.4547 30.0084 35.9155" stroke="url(#paint19_linear_609_1268)" stroke-width="2" stroke-linecap="round" stroke-linejoin="round"/>
<path d="M20.8516 33.7769C23.9708 30.6577 29.0285 30.6577 32.1477 33.7769" stroke="url(#paint20_linear_609_1268)" stroke-width="2" stroke-linecap="round" stroke-linejoin="round"/>
<path d="M32.0797 19.1338H20.92C19.5883 19.1338 18.5088 20.2133 18.5088 21.545V48.4117C18.5088 49.7434 19.5883 50.8229 20.92 50.8229H32.0797C33.4114 50.8229 34.4909 49.7434 34.4909 48.4117V21.545C34.4909 20.2133 33.4114 19.1338 32.0797 19.1338Z" stroke="url(#paint21_linear_609_1268)" stroke-width="2" stroke-linecap="round" stroke-linejoin="round"/>
<defs>
<linearGradient id="paint0_linear_609_1268" x1="61.7729" y1="26.385" x2="29.937" y2="-10.6982" gradientUnits="userSpaceOnUse">
<stop stop-color="#4817AF"/>
<stop offset="1" stop-color="#00468A"/>
</linearGradient>
<linearGradient id="paint1_linear_609_1268" x1="10.8416" y1="21.0145" x2="1.04762" y2="13.0673" gradientUnits="userSpaceOnUse">
<stop stop-color="#4817AF"/>
<stop offset="1" stop-color="#00468A"/>
</linearGradient>
<linearGradient id="paint2_linear_609_1268" x1="18.387" y1="17.2733" x2="5.27743" y2="11.178" gradientUnits="userSpaceOnUse">
<stop stop-color="#4817AF"/>
<stop offset="1" stop-color="#00468A"/>
</linearGradient>
<linearGradient id="paint3_linear_609_1268" x1="nan" y1="nan" x2="nan" y2="nan" gradientUnits="userSpaceOnUse">
<stop stop-color="#4817AF"/>
<stop offset="1" stop-color="#00468A"/>
</linearGradient>
<linearGradient id="paint4_linear_609_1268" x1="58.2139" y1="62.9346" x2="34.3089" y2="24.3554" gradientUnits="userSpaceOnUse">
<stop stop-color="#4817AF"/>
<stop offset="1" stop-color="#00468A"/>
</linearGradient>
<linearGradient id="paint5_linear_609_1268" x1="nan" y1="nan" x2="nan" y2="nan" gradientUnits="userSpaceOnUse">
<stop stop-color="#4817AF"/>
<stop offset="1" stop-color="#00468A"/>
</linearGradient>
<linearGradient id="paint6_linear_609_1268" x1="16.0662" y1="27.3029" x2="7.5782" y2="22.429" gradientUnits="userSpaceOnUse">
<stop stop-color="#4817AF"/>
<stop offset="1" stop-color="#00468A"/>
</linearGradient>
<linearGradient id="paint7_linear_609_1268" x1="45.242" y1="27.3029" x2="36.754" y2="22.429" gradientUnits="userSpaceOnUse">
<stop stop-color="#4817AF"/>
<stop offset="1" stop-color="#00468A"/>
</linearGradient>
<linearGradient id="paint8_linear_609_1268" x1="16.0662" y1="55.7589" x2="7.5782" y2="50.8851" gradientUnits="userSpaceOnUse">
<stop stop-color="#4817AF"/>
<stop offset="1" stop-color="#00468A"/>
</linearGradient>
<linearGradient id="paint9_linear_609_1268" x1="45.242" y1="55.7589" x2="36.754" y2="50.8851" gradientUnits="userSpaceOnUse">
<stop stop-color="#4817AF"/>
<stop offset="1" stop-color="#00468A"/>
</linearGradient>
<linearGradient id="paint10_linear_609_1268" x1="53.4695" y1="40.9874" x2="44.9815" y2="36.1136" gradientUnits="userSpaceOnUse">
<stop stop-color="#4817AF"/>
<stop offset="1" stop-color="#00468A"/>
</linearGradient>
<linearGradient id="paint11_linear_609_1268" x1="7.83867" y1="40.9874" x2="-0.649335" y2="36.1136" gradientUnits="userSpaceOnUse">
<stop stop-color="#4817AF"/>
<stop offset="1" stop-color="#00468A"/>
</linearGradient>
<linearGradient id="paint12_linear_609_1268" x1="nan" y1="nan" x2="nan" y2="nan" gradientUnits="userSpaceOnUse">
<stop stop-color="#4817AF"/>
<stop offset="1" stop-color="#00468A"/>
</linearGradient>
<linearGradient id="paint13_linear_609_1268" x1="nan" y1="nan" x2="nan" y2="nan" gradientUnits="userSpaceOnUse">
<stop stop-color="#4817AF"/>
<stop offset="1" stop-color="#00468A"/>
</linearGradient>
<linearGradient id="paint14_linear_609_1268" x1="16.5173" y1="34.0405" x2="9.65648" y2="31.7854" gradientUnits="userSpaceOnUse">
<stop stop-color="#4817AF"/>
<stop offset="1" stop-color="#00468A"/>
</linearGradient>
<linearGradient id="paint15_linear_609_1268" x1="42.0779" y1="34.0405" x2="35.217" y2="31.7854" gradientUnits="userSpaceOnUse">
<stop stop-color="#4817AF"/>
<stop offset="1" stop-color="#00468A"/>
</linearGradient>
<linearGradient id="paint16_linear_609_1268" x1="16.5173" y1="50.8104" x2="9.65657" y2="48.5552" gradientUnits="userSpaceOnUse">
<stop stop-color="#4817AF"/>
<stop offset="1" stop-color="#00468A"/>
</linearGradient>
<linearGradient id="paint17_linear_609_1268" x1="42.0779" y1="50.8104" x2="35.2171" y2="48.5552" gradientUnits="userSpaceOnUse">
<stop stop-color="#4817AF"/>
<stop offset="1" stop-color="#00468A"/>
</linearGradient>
<linearGradient id="paint18_linear_609_1268" x1="28.7557" y1="38.2354" x2="28.0502" y2="36.2793" gradientUnits="userSpaceOnUse">
<stop stop-color="#4817AF"/>
<stop offset="1" stop-color="#00468A"/>
</linearGradient>
<linearGradient id="paint19_linear_609_1268" x1="31.93" y1="36.5593" x2="30.2313" y2="31.85" gradientUnits="userSpaceOnUse">
<stop stop-color="#4817AF"/>
<stop offset="1" stop-color="#00468A"/>
</linearGradient>
<linearGradient id="paint20_linear_609_1268" x1="35.2407" y1="34.813" x2="32.5071" y2="27.2337" gradientUnits="userSpaceOnUse">
<stop stop-color="#4817AF"/>
<stop offset="1" stop-color="#00468A"/>
</linearGradient>
<linearGradient id="paint21_linear_609_1268" x1="38.867" y1="64.8567" x2="7.86744" y2="55.8794" gradientUnits="userSpaceOnUse">
<stop stop-color="#4817AF"/>
<stop offset="1" stop-color="#00468A"/>
</linearGradient>
</defs>
</svg>
